<?xml version="1.0" encoding="UTF-8"?>
<svg width="98px" height="32px" viewBox="0 0 98 32" version="1.1" xmlns="http://www.w3.org/2000/svg" xmlns:xlink="http://www.w3.org/1999/xlink">
    <!-- Generator: Sketch 52.2 (67145) - http://www.bohemiancoding.com/sketch -->
    <title>logo-PlatON</title>
    <desc>Created with Sketch.</desc>
    <g id="logo-PlatON" stroke="none" stroke-width="1" fill="none" fill-rule="evenodd">
        <g transform="translate(1.000000, 1.000000)">
            <path d="M67.9442061,16.3918009 L67.9442061,16.3844675 L67.9442061,14.4048766 L65.4490627,14.4035824 L65.4461183,11.6785714 L65.4343408,11.6785714 L63.2142857,11.6785714 L63.2147063,20.0076062 C63.2147063,21.9414711 64.3634313,23.1428571 66.2129164,23.1428571 L68.25,23.1428571 L68.25,21.062324 L66.1594972,21.062324 C65.6084793,21.062324 65.4490627,20.8971064 65.4490627,20.3259627 L65.4490627,16.3918009 L67.9442061,16.3918009 Z" id="Fill-330" fill="#FFFFFF"></path>
            <path d="M76.6071429,20.9513182 C74.0741324,20.9513182 72.0136406,18.9066813 72.0136406,16.3930713 C72.0136406,13.8794613 74.0741324,11.8348244 76.6071429,11.8348244 C79.1401534,11.8348244 81.2010754,13.8794613 81.2010754,16.3930713 C81.2010754,18.9066813 79.1401534,20.9513182 76.6071429,20.9513182 M76.6071429,9.64285714 C72.7082174,9.64285714 69.5357143,12.6712668 69.5357143,16.3930713 C69.5357143,20.1148758 72.7082174,23.1428571 76.6071429,23.1428571 C80.5060683,23.1428571 83.6785714,20.1148758 83.6785714,16.3930713 C83.6785714,12.6712668 80.5060683,9.64285714 76.6071429,9.64285714" id="Fill-332" fill="#FFFFFF"></path>
            <polygon id="Fill-334" fill="#FFFFFF" points="93.3520532 9.64285714 93.3520532 18.4760634 86.9368774 9.64285714 85.1785714 9.64285714 85.1785714 23.1428571 85.1802752 23.1428571 85.1973131 23.1428571 87.4935891 23.1428571 87.5050896 14.0939767 93.9121725 23.1428571 95.6785714 23.1428571 95.6785714 9.64285714"></polygon>
            <polygon id="Fill-336" fill="#FFFFFF" points="46.7142857 23.1428571 46.7142857 9.64285714 46.7178462 9.64285714 49.1785714 9.64285714 49.1785714 23.1428571 49.1767912 23.1428571"></polygon>
            <path d="M58.5423702,18.4555719 C58.5423702,19.2386528 58.2937145,19.885033 57.8033223,20.3772428 C57.3107679,20.8707628 56.6685876,21.1210167 55.8945117,21.1210167 C55.1195709,21.1210167 54.4773907,20.8716363 53.9852687,20.3807367 C53.4948765,19.8902739 53.2462208,19.2425835 53.2462208,18.4555719 C53.2462208,17.6729277 53.4953089,17.0261108 53.9852687,16.5334642 C54.4778231,16.040381 55.1200034,15.7896903 55.8945117,15.7896903 C56.6685876,15.7896903 57.3103354,16.0412545 57.802025,16.5365215 C58.2932821,17.0317884 58.5423702,17.6777319 58.5423702,18.4555719 Z M60.75,13.7474782 L58.5748035,13.7474782 L58.5748035,14.7139913 C58.3006336,14.4877582 58.0005171,14.2964646 57.6809405,14.1449147 C57.0772478,13.8592845 56.4052288,13.7142857 55.6834787,13.7142857 C54.259871,13.7142857 53.0935679,14.1536496 52.217435,15.0197117 C51.3387076,15.888831 50.8928571,17.0392131 50.8928571,18.4394124 C50.8928571,19.088413 51.0057252,19.6976701 51.2280017,20.2501504 C51.452008,20.807435 51.7888824,21.3144941 52.2308408,21.7586621 C52.6892321,22.2133119 53.2224364,22.5653271 53.8140206,22.8046625 C54.4043075,23.0439979 55.033082,23.1649758 55.6834787,23.1649758 C56.4160399,23.1649758 57.0785451,23.0282751 57.6528316,22.7579309 C57.942137,22.6212303 58.219334,22.4478431 58.4671248,22.2412635 L58.4671248,23.3571429 L60.7387564,23.3571429 L60.75,13.7474782 Z" id="Fill-338" fill="#FFFFFF"></path>
            <path d="M42.7437784,14.3004664 C42.7437784,14.9394689 42.5061777,15.4970972 42.0357718,15.9592177 C41.5658019,16.4209099 40.9977399,16.6551823 40.3472807,16.6551823 L37.184793,16.6551823 L37.184793,11.9641667 L40.3472807,11.9641667 C40.9977399,11.9641667 41.5658019,12.1980108 42.0370797,12.6609879 C42.5066136,13.0986961 42.7437784,13.6499001 42.7437784,14.3004664 M44.7291615,12.4901018 C44.4789178,11.9320453 44.1358136,11.4360902 43.7098761,11.0159418 C43.2830667,10.5970781 42.7747319,10.2604454 42.1988226,10.0146093 C41.6216054,9.76791663 40.9986119,9.64285714 40.3472807,9.64285714 L34.8214286,9.64285714 L34.8214286,23.1428571 L37.184793,23.1428571 L37.184793,18.9764919 L40.3472807,18.9764919 C40.9994838,18.9764919 41.6224773,18.8510041 42.1988226,18.6047397 C42.7751679,18.3589036 43.2835027,18.0214143 43.7098761,17.602979 C44.1358136,17.1841154 44.4784818,16.684734 44.7291615,16.1189683 C44.9798412,15.5519178 45.1071429,14.9403255 45.1071429,14.3004664 C45.1071429,13.6610355 44.9798412,13.0520129 44.7291615,12.4901018" id="Fill-340" fill="#FFFFFF"></path>
            <polygon id="Fill-342" fill="#F9BE00" points="11.1428571 18.9642857 18.6428571 18.9642857 18.6428571 11.4642857 11.1428571 11.4642857"></polygon>
            <path d="M7.82142857,26.1428571 L22.7859133,26.1428571 C24.5189017,26.1428571 25.9285714,24.7160688 25.9285714,22.9630077 L25.9285714,7.82142857 L22.4841491,7.82142857 L22.4841491,22.6576724 L7.82142857,22.6576724 L7.82142857,26.1428571 Z" id="Fill-344" fill="#FFFFFF"></path>
            <path d="M22.2857143,7.66410937 L22.2857143,4.17857143 L7.32122961,4.17857143 C5.58867224,4.17857143 4.17857143,5.60532585 4.17857143,7.35834512 L4.17857143,22.5 L7.62299377,22.5 L7.62299377,7.66410937 L22.2857143,7.66410937 Z" id="Fill-345" fill="#FFFFFF"></path>
            <polygon id="Fill-346" fill="#00B7DF" points="25.8214286 4.17857143 30 4.17857143 30 0 25.8214286 0"></polygon>
            <polygon id="Fill-347" fill="#E40065" points="0 30 4.17857143 30 4.17857143 25.8214286 0 25.8214286"></polygon>
        </g>
    </g>
</svg>