<?xml version="1.0" encoding="UTF-8"?>
<svg width="83px" height="30px" viewBox="0 0 83 30" version="1.1" xmlns="http://www.w3.org/2000/svg" xmlns:xlink="http://www.w3.org/1999/xlink">
    <title>Alaya-logo </title>
    <defs>
        <path d="M31.9875351,7.71088235 L31.9875351,11.6977941 L43.8017405,11.6977941 L43.8017405,14.0254412 L35.1465297,14.0254412 C34.1842486,14.0254412 33.4169946,14.3302941 32.8452108,14.9391176 L32.8452108,14.9391176 C32.2729838,15.5483824 31.9875351,16.2917647 31.9875351,17.1692647 L31.9875351,17.1692647 L31.9875351,20.3404412 C31.9875351,21.2360294 32.2871676,21.9842647 32.8859892,22.5842647 L32.8859892,22.5842647 C33.4848108,23.1842647 34.2383243,23.4842647 35.1465297,23.4842647 L35.1465297,23.4842647 L42.2255676,23.4842647 L42.2255676,19.7832353 L35.9488,19.7832353 L35.9488,17.5217647 L43.8017405,17.5217647 L43.8017405,23.4842647 L47.673027,23.4842647 L47.673027,10.8547059 C47.673027,9.95867647 47.377827,9.21132353 46.7878703,8.61088235 L46.7878703,8.61088235 C46.1979135,8.01088235 45.4399676,7.71088235 44.5144757,7.71088235 L44.5144757,7.71088235 L31.9875351,7.71088235 Z" id="path-1"></path>
        <path d="M66.3162811,7.71088235 L66.3162811,11.6977941 L78.1304865,11.6977941 L78.1304865,14.0254412 L69.4748324,14.0254412 C68.5121081,14.0254412 67.7461838,14.3302941 67.1735135,14.9391176 L67.1735135,14.9391176 C66.6017297,15.5483824 66.3162811,16.2917647 66.3162811,17.1692647 L66.3162811,17.1692647 L66.3162811,20.3404412 C66.3162811,21.2360294 66.6159135,21.9842647 67.2147351,22.5842647 L67.2147351,22.5842647 C67.8135568,23.1842647 68.5670703,23.4842647 69.4748324,23.4842647 L69.4748324,23.4842647 L76.5543135,23.4842647 L76.5543135,19.7832353 L70.2771027,19.7832353 L70.2771027,17.5217647 L78.1304865,17.5217647 L78.1304865,23.4842647 L82.0013297,23.4842647 L82.0013297,10.8547059 C82.0013297,9.95867647 81.7061297,9.21132353 81.116173,8.61088235 L81.116173,8.61088235 C80.5266595,8.01088235 79.7687135,7.71088235 78.8432216,7.71088235 L78.8432216,7.71088235 L66.3162811,7.71088235 Z" id="path-3"></path>
        <polygon id="path-5" points="0 23.4842647 4.23164324 23.4842647 12.1076324 8.15647059 9.86216216 4.03941176"></polygon>
        <path d="M7.54134054,20.5592647 L10.3373189,20.5592647 C11.1985405,20.5592647 11.986627,20.0770588 12.3762378,19.3120588 L12.3762378,19.3120588 L12.8128324,18.4530882 L15.5569514,23.4842647 L20.4672,23.4842647 L13.0065297,9.80735294 L7.54134054,20.5592647 Z" id="path-7"></path>
        <path d="M20.4672,4.03941176 L20.4672,19.8785294 L20.4672,20.8773529 C20.4672,22.3173529 21.5819568,23.4842647 22.9564541,23.4842647 L22.9564541,23.4842647 L23.0863243,23.4842647 L24.3455784,23.4842647 L30.3936324,23.4842647 L30.3936324,19.8785294 L24.3455784,19.8785294 L24.3455784,7.08 L22.6874054,4.03941176 L20.4672,4.03941176 Z" id="path-9"></path>
        <path d="M6.12961081,0.119558824 C5.46917838,0.119558824 4.93374054,0.6525 4.93374054,1.31029412 L4.93374054,1.31029412 L4.93374054,2.56455882 L14.860173,2.56455882 L14.860173,1.31029412 C14.860173,0.6525 14.3247351,0.119558824 13.6643027,0.119558824 L13.6643027,0.119558824 L6.12961081,0.119558824 Z" id="path-11"></path>
        <path d="M48.6783027,7.18897059 L55.5565514,20.4869118 L56.8140324,17.2830882 C57.1845838,16.3394118 57.1185405,15.2814706 56.6327459,14.3907353 L56.6327459,14.3907353 L52.7056108,7.18897059 L48.6783027,7.18897059 Z" id="path-13"></path>
        <polygon id="path-15" points="61.3781081 7.18897059 52.5877081 30 56.5064216 30 65.4284649 7.18897059"></polygon>
    </defs>
    <g id="PlatScan" stroke="none" stroke-width="1" fill="none" fill-rule="evenodd">
        <g id="0-首页-0.8备份-3" transform="translate(-160.000000, -28.000000)">
            <g id="header" transform="translate(160.000000, 21.000000)">
                <g id="Alaya-logo-" transform="translate(0.000000, 7.000000)">
                    <mask id="mask-2" fill="white">
                        <use xlink:href="#path-1"></use>
                    </mask>
                    <use id="蒙版" fill="#FFFFFF" xlink:href="#path-1"></use>
                    <mask id="mask-4" fill="white">
                        <use xlink:href="#path-3"></use>
                    </mask>
                    <use id="Clip-4" fill="#FFFFFF" xlink:href="#path-3"></use>
                    <mask id="mask-6" fill="white">
                        <use xlink:href="#path-5"></use>
                    </mask>
                    <use id="Clip-6" fill="#FFFFFF" xlink:href="#path-5"></use>
                    <mask id="mask-8" fill="white">
                        <use xlink:href="#path-7"></use>
                    </mask>
                    <use id="Clip-8" fill="#FFFFFF" xlink:href="#path-7"></use>
                    <mask id="mask-10" fill="white">
                        <use xlink:href="#path-9"></use>
                    </mask>
                    <use id="Clip-10" fill="#FFFFFF" xlink:href="#path-9"></use>
                    <mask id="mask-12" fill="white">
                        <use xlink:href="#path-11"></use>
                    </mask>
                    <use id="Clip-12" fill="#FCB54D" xlink:href="#path-11"></use>
                    <mask id="mask-14" fill="white">
                        <use xlink:href="#path-13"></use>
                    </mask>
                    <use id="Clip-14" fill="#FCB54D" xlink:href="#path-13"></use>
                    <mask id="mask-16" fill="white">
                        <use xlink:href="#path-15"></use>
                    </mask>
                    <use id="Clip-16" fill="#FFFFFF" xlink:href="#path-15"></use>
                </g>
            </g>
        </g>
    </g>
</svg>